<mxfile host="app.diagrams.net" modified="2024-05-03T07:53:02.788Z" agent="Mozilla/5.0 (Windows NT 10.0; Win64; x64) AppleWebKit/537.36 (KHTML, like Gecko) Chrome/124.0.0.0 Safari/537.36" version="24.2.8" etag="SqWN1lyPrGlsEsyK60fj" type="github">
  <diagram name="Pagina-1" id="THLnMDhPb23sxfVdM8Kc">
    <mxGraphModel>
      <root>
        <mxCell id="0" />
        <mxCell id="1" parent="0" />
      </root>
    </mxGraphModel>
  </diagram>
</mxfile>
